<svg width="719" height="202" viewBox="0 0 719 202" fill="none" xmlns="http://www.w3.org/2000/svg">
<path d="M258.352 91.9742V127.628H227.574V9.90092H281.729C294.51 9.90092 305.047 13.8273 313.345 21.6742C321.755 29.4098 325.957 39.1086 325.957 50.7705C325.957 62.4325 321.696 72.3539 313.175 80.2009C304.877 88.0478 294.393 91.9742 281.723 91.9742H258.347H258.352ZM281.729 38.1592H258.352V63.7217H281.729C285.204 63.7217 288.117 62.4911 290.473 60.0239C292.828 57.5567 294.006 54.4742 294.006 50.7764C294.006 47.0785 292.828 44.1894 290.473 41.7809C288.117 39.3723 285.198 38.1651 281.729 38.1651V38.1592ZM392.559 7.88498C410.163 7.88498 424.96 13.716 436.956 25.3779C448.841 36.9285 454.783 51.3917 454.783 68.7674C454.783 86.1432 448.841 100.612 436.956 112.157C424.96 123.819 410.157 129.65 392.559 129.65C374.96 129.65 360.157 123.819 348.161 112.157C336.277 100.612 330.334 86.1432 330.334 68.7674C330.334 51.3917 336.277 36.9285 348.161 25.3779C360.157 13.716 374.96 7.88498 392.559 7.88498ZM362.454 68.5975C362.454 77.5696 365.314 85.0766 371.034 91.1361C376.976 97.0785 384.149 100.05 392.559 100.05C400.968 100.05 408.37 97.0199 414.084 90.9662C419.915 85.0239 422.827 77.5696 422.827 68.5975C422.827 59.6254 419.909 52.2297 414.084 46.3988C408.253 40.3451 401.074 37.3153 392.559 37.3153C384.044 37.3153 376.859 40.3451 371.034 46.3988C365.314 52.3411 362.454 59.7426 362.454 68.5975ZM479.004 0.149414C484.161 0.149414 488.421 1.86062 491.785 5.27716C495.149 8.69956 496.831 12.9307 496.831 17.9764C496.831 23.0221 495.149 27.2239 491.785 30.5877C488.421 33.9515 484.161 35.6334 479.004 35.6334C473.847 35.6334 469.891 33.9515 466.474 30.5877C463.052 27.2239 461.347 23.0221 461.347 17.9764C461.347 12.9307 463.058 8.69956 466.474 5.27716C469.891 1.86062 474.069 0.149414 479.004 0.149414ZM493.807 127.634H464.376V40.1751H493.807V127.628V127.634ZM534.676 127.634H505.076V9.90092H532.49L582.608 74.9852V9.90092H612.208V127.628H584.794L534.676 62.7079V127.628V127.634ZM654.754 38.1592H621.285V9.90092H719V38.1533H685.532V127.628H654.754V38.1592ZM255.856 170.965L247.2 173.004C246.942 172.125 246.345 171.399 245.407 170.824C244.469 170.256 243.356 169.969 242.073 169.969C240.789 169.969 239.646 170.262 238.767 170.848C237.888 171.434 237.443 172.19 237.443 173.11C237.443 174.288 238.51 175.313 240.643 176.198C241.416 176.491 243.344 177.101 246.433 178.015C248.783 178.712 250.716 179.521 252.223 180.441C255.569 182.205 257.333 185.258 257.514 189.595C257.514 193.345 256.172 196.34 253.488 198.584C250.804 200.829 247.329 201.948 243.069 201.948C239.172 201.948 235.808 201.028 232.977 199.194C230.223 197.395 228.418 195.021 227.574 192.079L236.341 189.981C236.634 191.118 237.408 192.056 238.656 192.794C239.904 193.527 241.375 193.896 243.069 193.896C244.651 193.896 245.993 193.556 247.095 192.876C248.197 192.197 248.747 191.359 248.747 190.368C248.747 189.671 248.419 189.044 247.757 188.493C246.913 187.76 245.313 187.004 242.963 186.231L242.412 186.067C240.537 185.516 239.564 185.223 239.488 185.188L236.787 184.197C235.462 183.611 234.583 183.189 234.138 182.932C232.046 181.425 230.739 180.248 230.223 179.404C229.192 177.675 228.682 175.8 228.682 173.778C228.682 170.25 229.895 167.402 232.321 165.234C234.782 163.03 237.982 161.928 241.914 161.928C245.366 161.928 248.384 162.79 250.957 164.519C253.494 166.212 255.129 168.357 255.862 170.971L255.856 170.965ZM280.504 161.922C284.618 161.922 288.298 162.936 291.533 164.952C294.839 166.974 297.282 169.658 298.865 172.998L290.373 176.14C289.383 174.34 288.023 172.916 286.294 171.867C284.565 170.818 282.637 170.297 280.504 170.297C277.346 170.297 274.697 171.416 272.564 173.661C270.43 175.829 269.364 178.589 269.364 181.929C269.364 185.27 270.43 188.012 272.564 190.257C274.697 192.46 277.34 193.562 280.504 193.562C282.637 193.562 284.565 193.041 286.294 191.992C288.023 190.943 289.383 189.519 290.373 187.719L298.865 190.861C297.282 194.207 294.839 196.908 291.533 198.965C288.298 200.952 284.624 201.942 280.504 201.942C274.773 201.942 269.956 200.032 266.059 196.211C262.197 192.425 260.269 187.667 260.269 181.929C260.269 176.192 262.197 171.434 266.059 167.648C269.956 163.827 274.767 161.917 280.504 161.917V161.922ZM311.652 201.233H302.885V162.637H311.652V177.687H328.359V162.637H337.068V201.233H328.359V185.739H311.652V201.233ZM347.265 196.211C343.403 192.425 341.475 187.667 341.475 181.929C341.475 176.192 343.403 171.434 347.265 167.648C351.162 163.827 355.973 161.917 361.71 161.917C367.447 161.917 372.259 163.827 376.156 167.648C380.053 171.434 381.998 176.192 381.998 181.929C381.998 187.667 380.047 192.425 376.156 196.211C372.259 200.032 367.447 201.942 361.71 201.942C355.973 201.942 351.162 200.032 347.265 196.211ZM361.71 193.568C364.869 193.568 367.535 192.466 369.704 190.263C371.837 188.024 372.903 185.246 372.903 181.935C372.903 178.624 371.837 175.835 369.704 173.666C367.57 171.428 364.91 170.303 361.71 170.303C358.51 170.303 355.903 171.422 353.77 173.666C351.636 175.835 350.57 178.595 350.57 181.935C350.57 185.276 351.636 188.018 353.77 190.263C355.903 192.466 358.546 193.568 361.71 193.568ZM391.375 196.211C387.513 192.425 385.585 187.667 385.585 181.929C385.585 176.192 387.513 171.434 391.375 167.648C395.272 163.827 400.083 161.917 405.821 161.917C411.558 161.917 416.369 163.827 420.266 167.648C424.163 171.434 426.109 176.192 426.109 181.929C426.109 187.667 424.157 192.425 420.266 196.211C416.369 200.032 411.558 201.942 405.821 201.942C400.083 201.942 395.272 200.032 391.375 196.211ZM405.821 193.568C408.979 193.568 411.646 192.466 413.814 190.263C415.947 188.024 417.014 185.246 417.014 181.935C417.014 178.624 415.947 175.835 413.814 173.666C411.681 171.428 409.02 170.303 405.821 170.303C402.621 170.303 400.013 171.422 397.88 173.666C395.747 175.835 394.68 178.595 394.68 181.935C394.68 185.276 395.747 188.018 397.88 190.263C400.013 192.466 402.656 193.568 405.821 193.568ZM430.463 162.637H439.23V193.181H457.866V201.233H430.463V162.637Z" fill="#0C1121"/>
<path d="M100.945 150.523C100.427 123.111 78.0435 101.047 50.5046 101.047C22.9658 101.047 0.0576172 123.636 0.0576172 151.498C0.0576172 179.359 22.6432 201.948 50.5046 201.948C78.3661 201.948 100.423 179.887 100.945 152.476C100.952 152.15 100.955 151.824 100.955 151.498C100.955 151.171 100.952 150.845 100.945 150.523ZM51.6322 170.686C40.272 170.686 31.0569 161.478 31.0569 150.115C31.0569 142.509 35.1876 135.865 41.3215 132.309C40.5556 134.525 40.1444 136.904 40.1444 139.375C40.1444 151.352 49.8487 161.057 61.8223 161.057C64.6942 161.057 67.4421 160.496 69.9524 159.482C66.545 166.137 59.6204 170.686 51.6322 170.686Z" fill="#05BA7C"/>
<path d="M151.385 101.047C123.846 101.047 101.462 123.111 100.945 150.523C100.938 150.845 100.934 151.171 100.934 151.498C100.934 151.824 100.938 152.15 100.945 152.476C101.466 179.887 123.846 201.948 151.385 201.948C178.923 201.948 201.832 179.359 201.832 151.498C201.832 123.636 179.246 101.047 151.385 101.047ZM168.198 161.716C166.042 161.716 164.294 159.972 164.294 157.816C164.294 157.745 164.301 157.674 164.305 157.6L157.809 155.111C157.192 156.178 156.324 157.078 155.281 157.734L158.019 164.124C158.139 164.113 158.26 164.106 158.384 164.106C160.539 164.106 162.284 165.854 162.284 168.01C162.284 170.165 160.539 171.91 158.384 171.91C156.228 171.91 154.48 170.162 154.48 168.01C154.48 166.832 155.005 165.779 155.827 165.063L153.09 158.67C152.498 158.819 151.881 158.908 151.243 158.908C149.605 158.908 148.094 158.383 146.853 157.504L142.475 161.978C143.216 163.031 143.652 164.315 143.652 165.701C143.652 169.286 140.748 172.193 137.16 172.193C133.571 172.193 130.668 169.286 130.668 165.701C130.668 162.117 133.575 159.209 137.16 159.209C138.5 159.209 139.741 159.613 140.773 160.308L145.155 155.834C144.215 154.572 143.652 153.012 143.652 151.317C143.652 149.867 144.067 148.512 144.776 147.36L141.28 144.374C140.464 144.956 139.471 145.303 138.394 145.303C135.653 145.303 133.43 143.084 133.43 140.34C133.43 137.595 135.653 135.379 138.394 135.379C141.134 135.379 143.357 137.599 143.357 140.34C143.357 141.141 143.162 141.893 142.829 142.563L146.322 145.548C147.648 144.417 149.364 143.729 151.243 143.729C152.92 143.729 154.462 144.279 155.721 145.201L162.599 138.379C162.146 137.627 161.88 136.748 161.88 135.805C161.88 133.043 164.121 130.802 166.886 130.802C169.652 130.802 171.889 133.043 171.889 135.805C171.889 138.567 169.648 140.811 166.886 140.811C165.929 140.811 165.039 140.538 164.277 140.07L157.398 146.892C158.295 148.14 158.83 149.664 158.83 151.317C158.83 151.856 158.774 152.38 158.667 152.887L165.156 155.376C165.872 154.487 166.968 153.916 168.198 153.916C170.35 153.916 172.098 155.66 172.098 157.816C172.098 159.972 170.35 161.716 168.198 161.716Z" fill="#FF9C00"/>
<path d="M100.945 49.6249C100.427 22.2138 78.0435 0.149414 50.5046 0.149414C22.9658 0.149414 0.0576172 22.7385 0.0576172 50.6C0.0576172 78.4614 22.6432 101.047 50.5046 101.047C78.3661 101.047 100.423 78.9897 100.945 51.5786C100.952 51.2524 100.955 50.9262 100.955 50.6C100.955 50.2738 100.952 49.9476 100.945 49.6249ZM49.3984 66.5234C48.434 65.41 47.0335 64.7647 45.5585 64.7647H28.5112L28.4651 39.2788H30.869V61.1057C30.869 61.7261 31.3725 62.2332 31.9965 62.2332H44.8423C47.4341 62.2332 49.3984 63.8145 49.3984 65.7681V66.5234ZM49.3984 61.8538C49.3984 61.8538 48.4517 60.4745 44.6508 60.4745H33.0106C32.9751 60.4745 32.9468 60.4462 32.9468 60.4107V34.6731H43.3921C46.7108 34.6731 49.3984 37.3642 49.3984 40.6829V61.8538ZM51.6109 40.6829C51.6109 37.3642 54.302 34.6731 57.6207 34.6731H68.0625V60.4107C68.0625 60.4462 68.0377 60.4745 68.0023 60.4745H56.362C52.5611 60.4745 51.6109 61.8538 51.6109 61.8538V40.6829ZM72.5017 64.7647H55.4543C54.7168 64.7647 53.9971 64.9243 53.3411 65.2257C52.6852 65.527 52.0931 65.9667 51.6109 66.5234V65.7681C51.6109 63.8145 53.5787 62.2332 56.1705 62.2332H69.0163C69.6368 62.2332 70.1438 61.7261 70.1438 61.1057V39.2788H72.5442L72.5017 64.7647Z" fill="#087DCE"/>
<path fill-rule="evenodd" clip-rule="evenodd" d="M151.384 0.149414C179.246 0.149414 201.831 22.7388 201.831 50.6002C201.831 78.4616 178.923 101.047 151.384 101.047C123.846 101.047 101.466 78.9895 100.944 51.5784C100.937 51.2523 100.934 50.9263 100.934 50.6002C100.934 50.274 100.937 49.9473 100.944 49.6246C101.462 22.2137 123.846 0.14951 151.384 0.149414ZM142.286 45.3416L133.125 67.4169L146.282 54.2628C145.633 53.0077 145.836 51.4229 146.892 50.3663C148.197 49.0615 150.313 49.0615 151.618 50.3663C152.923 51.671 152.923 53.7874 151.622 55.0922C150.566 56.1452 148.981 56.3476 147.726 55.7024L134.568 68.8566L156.646 59.6983V59.7015L161.808 49.2952L152.692 40.176L142.286 45.3416ZM149.934 52.0501C149.562 51.6779 148.952 51.6743 148.576 52.0501C148.2 52.4259 148.204 53.0357 148.576 53.4116C148.952 53.7838 149.562 53.7874 149.938 53.4116C150.31 53.0357 150.306 52.4262 149.934 52.054V52.0501ZM160.667 32.631C160.199 32.163 159.44 32.163 158.972 32.631L154.409 37.1941C153.941 37.6622 153.941 38.4209 154.409 38.8889L163.092 47.5722C163.56 48.04 164.319 48.0402 164.787 47.5722L169.35 43.0091C169.818 42.5411 169.818 41.7817 169.35 41.3137L160.667 32.631Z" fill="#E40535"/>
</svg>
