<svg width="725" height="212" viewBox="0 0 725 212" fill="none" xmlns="http://www.w3.org/2000/svg">
<path d="M263.285 97.0096V132.677H232.494V14.9046H286.67C299.456 14.9046 309.997 18.8325 318.299 26.6824C326.711 34.421 330.915 44.1235 330.915 55.79C330.915 67.4565 326.653 77.3818 318.129 85.2317C309.827 93.0817 299.339 97.0096 286.664 97.0096H263.279H263.285ZM286.67 43.1738H263.285V68.7463H286.67C290.147 68.7463 293.06 67.5151 295.417 65.047C297.774 62.5788 298.952 59.4951 298.952 55.7959C298.952 52.0966 297.774 49.2064 295.417 46.7969C293.06 44.3873 290.141 43.1797 286.67 43.1797V43.1738ZM397.543 12.8879C415.154 12.8879 429.957 18.7211 441.958 30.3876C453.847 41.9427 459.791 56.4114 459.791 73.7939C459.791 91.1764 453.847 105.651 441.958 117.2C429.957 128.867 415.148 134.7 397.543 134.7C379.938 134.7 365.129 128.867 353.128 117.2C341.239 105.651 335.294 91.1764 335.294 73.7939C335.294 56.4114 341.239 41.9427 353.128 30.3876C365.129 18.7211 379.938 12.8879 397.543 12.8879ZM367.427 73.6239C367.427 82.5995 370.288 90.1094 376.01 96.1713C381.954 102.116 389.13 105.088 397.543 105.088C405.956 105.088 413.36 102.057 419.076 96.0013C424.909 90.0566 427.823 82.5995 427.823 73.6239C427.823 64.6483 424.903 57.2498 419.076 51.4165C413.243 45.3605 406.061 42.3296 397.543 42.3296C389.025 42.3296 381.837 45.3605 376.01 51.4165C370.288 57.3612 367.427 64.7656 367.427 73.6239ZM484.021 5.14929C489.18 5.14929 493.442 6.86116 496.808 10.279C500.173 13.7028 501.855 17.9355 501.855 22.9832C501.855 28.0308 500.173 32.2343 496.808 35.5994C493.442 38.9645 489.18 40.647 484.021 40.647C478.862 40.647 474.905 38.9645 471.487 35.5994C468.063 32.2343 466.357 28.0308 466.357 22.9832C466.357 17.9355 468.069 13.7028 471.487 10.279C474.905 6.86116 479.085 5.14929 484.021 5.14929ZM498.83 132.683H469.388V45.1905H498.83V132.677V132.683ZM539.716 132.683H510.104V14.9046H537.529L587.665 80.0141V14.9046H617.277V132.677H589.852L539.716 67.732V132.677V132.683ZM659.839 43.1738H626.358V14.9046H724.11V43.1679H690.629V132.677H659.839V43.1738ZM260.787 176.031L252.128 178.071C251.87 177.192 251.272 176.465 250.334 175.89C249.396 175.322 248.282 175.034 246.998 175.034C245.714 175.034 244.571 175.327 243.692 175.914C242.812 176.5 242.367 177.256 242.367 178.177C242.367 179.355 243.434 180.381 245.568 181.266C246.342 181.559 248.271 182.169 251.36 183.084C253.711 183.781 255.646 184.59 257.152 185.511C260.5 187.275 262.264 190.33 262.446 194.668C262.446 198.42 261.104 201.416 258.419 203.661C255.734 205.906 252.257 207.026 247.995 207.026C244.096 207.026 240.731 206.106 237.9 204.271C235.144 202.471 233.339 200.097 232.494 197.154L241.265 195.055C241.558 196.192 242.332 197.13 243.58 197.869C244.829 198.602 246.301 198.971 247.995 198.971C249.578 198.971 250.92 198.631 252.023 197.951C253.125 197.271 253.676 196.433 253.676 195.442C253.676 194.744 253.347 194.117 252.685 193.566C251.841 192.833 250.24 192.077 247.889 191.303L247.338 191.139C245.462 190.588 244.489 190.295 244.413 190.259L241.71 189.269C240.385 188.682 239.506 188.26 239.06 188.002C236.968 186.496 235.66 185.317 235.144 184.473C234.112 182.744 233.602 180.868 233.602 178.845C233.602 175.316 234.816 172.467 237.243 170.297C239.705 168.093 242.906 166.991 246.84 166.991C250.293 166.991 253.312 167.853 255.886 169.582C258.424 171.276 260.06 173.422 260.793 176.037L260.787 176.031ZM285.445 166.985C289.56 166.985 293.242 167.999 296.478 170.016C299.785 172.039 302.229 174.724 303.812 178.065L295.317 181.208C294.327 179.408 292.967 177.983 291.237 176.934C289.508 175.884 287.579 175.363 285.445 175.363C282.285 175.363 279.635 176.482 277.501 178.728C275.367 180.897 274.3 183.658 274.3 187C274.3 190.341 275.367 193.085 277.501 195.33C279.635 197.535 282.279 198.637 285.445 198.637C287.579 198.637 289.508 198.115 291.237 197.066C292.967 196.016 294.327 194.592 295.317 192.792L303.812 195.934C302.229 199.282 299.785 201.984 296.478 204.042C293.242 206.03 289.566 207.02 285.445 207.02C279.711 207.02 274.892 205.109 270.994 201.287C267.13 197.5 265.202 192.739 265.202 187C265.202 181.26 267.13 176.5 270.994 172.713C274.892 168.89 279.706 166.979 285.445 166.979V166.985ZM316.604 206.311H307.834V167.7H316.604V182.755H333.319V167.7H342.03V206.311H333.319V190.81H316.604V206.311ZM352.231 201.287C348.368 197.5 346.439 192.739 346.439 187C346.439 181.26 348.368 176.5 352.231 172.713C356.13 168.89 360.943 166.979 366.682 166.979C372.422 166.979 377.235 168.89 381.134 172.713C385.032 176.5 386.978 181.26 386.978 187C386.978 192.739 385.026 197.5 381.134 201.287C377.235 205.109 372.422 207.02 366.682 207.02C360.943 207.02 356.13 205.109 352.231 201.287ZM366.682 198.643C369.842 198.643 372.51 197.541 374.679 195.336C376.813 193.097 377.88 190.318 377.88 187.006C377.88 183.693 376.813 180.903 374.679 178.734C372.545 176.494 369.883 175.368 366.682 175.368C363.481 175.368 360.873 176.488 358.739 178.734C356.605 180.903 355.538 183.664 355.538 187.006C355.538 190.347 356.605 193.091 358.739 195.336C360.873 197.541 363.517 198.643 366.682 198.643ZM396.359 201.287C392.495 197.5 390.566 192.739 390.566 187C390.566 181.26 392.495 176.5 396.359 172.713C400.257 168.89 405.07 166.979 410.81 166.979C416.549 166.979 421.362 168.89 425.261 172.713C429.16 176.5 431.106 181.26 431.106 187C431.106 192.739 429.154 197.5 425.261 201.287C421.362 205.109 416.549 207.02 410.81 207.02C405.07 207.02 400.257 205.109 396.359 201.287ZM410.81 198.643C413.97 198.643 416.637 197.541 418.806 195.336C420.94 193.097 422.007 190.318 422.007 187.006C422.007 183.693 420.94 180.903 418.806 178.734C416.672 176.494 414.011 175.368 410.81 175.368C407.609 175.368 405 176.488 402.866 178.734C400.732 180.903 399.665 183.664 399.665 187.006C399.665 190.347 400.732 193.091 402.866 195.336C405 197.541 407.644 198.643 410.81 198.643ZM435.462 167.7H444.232V198.256H462.875V206.311H435.462V167.7Z" fill="white"/>
<path fill-rule="evenodd" clip-rule="evenodd" d="M157.448 0.571286C186.855 1.30736 210.535 25.0958 211.098 54.5431L211.111 55.6205L211.098 56.6978C210.673 78.8236 197.369 97.7627 178.162 106.116C197.252 114.499 210.676 133.398 211.098 155.482L211.111 156.559C211.111 156.92 211.106 157.28 211.098 157.636C210.533 187.065 187.187 210.868 157.464 211.605L156.044 211.622C133.601 211.622 114.301 198.195 105.724 178.937C97.3979 197.8 78.8242 211.074 56.7313 211.605L55.3552 211.622C25.4205 211.622 1.06579 187.734 0.311276 157.981L0.293701 156.559C0.293701 134.004 14.027 114.634 33.3798 106.118C14.3167 97.8102 0.86822 79.029 0.311276 57.0405L0.293701 55.6205C0.293701 25.1914 25.2863 0.554222 55.3552 0.553711L56.7172 0.569528C78.6193 1.10083 97.3441 14.4206 105.724 33.3446C114.355 14.0242 133.807 0.553768 156.044 0.553711L157.448 0.571286ZM153.012 206.931C153.605 206.967 154.2 206.996 154.798 207.011L153.557 206.965C153.375 206.956 153.194 206.942 153.012 206.931ZM17.2691 189.671C17.6838 190.148 18.1112 190.613 18.5433 191.074C18.0853 190.586 17.6337 190.091 17.1953 189.585L17.2691 189.671ZM13.5925 128.341C13.4581 128.538 13.3286 128.739 13.197 128.939C13.5525 128.4 13.915 127.867 14.2902 127.343L13.5925 128.341ZM24.3341 116.854C24.1213 117.021 23.9116 117.192 23.7014 117.362C24.2261 116.937 24.7575 116.52 25.299 116.116L24.3341 116.854ZM30.9352 112.464C30.3948 112.766 29.8588 113.075 29.3306 113.395L30.3798 112.775C30.5637 112.669 30.7499 112.568 30.9352 112.464ZM39.2937 108.74C37.8718 109.223 36.4785 109.772 35.1144 110.376C36.852 109.606 38.6378 108.929 40.4677 108.357L39.2937 108.74ZM173.207 109.083C173.59 109.221 173.971 109.362 174.35 109.51C173.593 109.215 172.827 108.939 172.053 108.68L173.207 109.083ZM44.0582 107.381C43.654 107.475 43.2514 107.573 42.8508 107.677L44.0582 107.381C44.4624 107.288 44.8701 107.198 45.2779 107.114L44.0582 107.381ZM162.399 106.485C163.648 106.642 164.882 106.843 166.1 107.09L164.877 106.858C163.648 106.641 162.403 106.469 161.144 106.343L162.399 106.485ZM53.0476 106.142C50.8299 106.244 48.6462 106.492 46.5063 106.877L47.7453 106.67C49.4871 106.401 51.2563 106.225 53.0476 106.142ZM4.95275 58.1969C5.08219 60.7703 5.40449 63.2929 5.9053 65.7505C5.40577 63.2991 5.08458 60.7829 4.95451 58.2162L4.95275 58.1969ZM105.993 49.1934C105.922 49.7445 105.856 50.2977 105.803 50.8542L105.933 49.6363C105.951 49.4883 105.974 49.341 105.993 49.1934ZM105.473 49.6363C105.491 49.7912 105.505 49.9467 105.522 50.102C105.463 49.5611 105.399 49.0225 105.324 48.4869L105.473 49.6363ZM107.311 42.5344C107.134 43.1903 106.972 43.8523 106.821 44.5185C107.061 43.4618 107.332 42.4172 107.638 41.3867L107.311 42.5344ZM109.654 35.8226C109.499 36.183 109.348 36.5458 109.2 36.9105L109.656 35.8208C109.811 35.4607 109.97 35.1028 110.134 34.747L109.654 35.8226ZM111.712 31.6011C111.4 32.1716 111.102 32.7505 110.812 33.334C111.277 32.4003 111.767 31.4819 112.287 30.5818L111.712 31.6011ZM13.5925 27.4026C13.4123 27.6674 13.237 27.9356 13.0617 28.204C13.4592 27.5953 13.8676 26.9945 14.2902 26.4043L13.5925 27.4026ZM118.424 22.102C117.649 22.9686 116.904 23.862 116.19 24.7804L116.916 23.87C117.651 22.9686 118.416 22.0929 119.209 21.2444L118.424 22.102ZM121.673 18.7822C121.39 19.0462 121.11 19.3132 120.833 19.5836L121.673 18.7822C121.956 18.5179 122.244 18.2561 122.533 17.9983L121.673 18.7822ZM129.011 13.0845C128.629 13.3288 128.252 13.5807 127.877 13.8349C128.573 13.3628 129.28 12.9053 130 12.4676L129.011 13.0845ZM39.2937 7.80151C37.8315 8.2984 36.3994 8.86385 34.9984 9.48868C36.7724 8.69748 38.5971 8.00294 40.4677 7.41838L39.2937 7.80151ZM161.81 5.47814C160.336 5.31043 158.842 5.20315 157.332 5.16531L158.612 5.21452C159.687 5.26841 160.754 5.35794 161.81 5.47814Z" fill="white"/>
<circle cx="54.8161" cy="55.076" r="33.6462" fill="white"/>
<circle cx="155.754" cy="55.076" r="33.6462" fill="white"/>
<circle cx="54.8161" cy="156.015" r="33.6462" fill="white"/>
<circle cx="155.754" cy="156.015" r="33.6462" fill="white"/>
<path d="M105.816 155.581C105.298 128.159 82.9057 106.086 55.3562 106.086C27.8068 106.086 4.88965 128.684 4.88965 156.556C4.88965 184.428 27.484 207.026 55.3562 207.026C83.2285 207.026 105.294 184.957 105.816 157.535C105.823 157.209 105.826 156.882 105.826 156.556C105.826 156.23 105.823 155.903 105.816 155.581ZM56.4842 175.752C45.1196 175.752 35.901 166.541 35.901 155.173C35.901 147.564 40.0332 140.917 46.1695 137.36C45.4034 139.577 44.9919 141.957 44.9919 144.429C44.9919 156.411 54.7 166.119 66.6782 166.119C69.5513 166.119 72.3002 165.558 74.8115 164.544C71.4028 171.202 64.4755 175.752 56.4842 175.752Z" fill="#05BA7C"/>
<path d="M156.275 106.086C128.726 106.086 106.334 128.159 105.816 155.581C105.809 155.903 105.805 156.23 105.805 156.556C105.805 156.882 105.809 157.209 105.816 157.535C106.337 184.957 128.726 207.026 156.275 207.026C183.825 207.026 206.742 184.428 206.742 156.556C206.742 128.684 184.148 106.086 156.275 106.086ZM173.095 166.778C170.939 166.778 169.19 165.033 169.19 162.877C169.19 162.806 169.197 162.735 169.201 162.66L162.702 160.17C162.085 161.238 161.216 162.139 160.173 162.795L162.912 169.187C163.032 169.176 163.153 169.169 163.277 169.169C165.434 169.169 167.179 170.918 167.179 173.074C167.179 175.231 165.434 176.976 163.277 176.976C161.12 176.976 159.372 175.227 159.372 173.074C159.372 171.897 159.897 170.843 160.72 170.127L157.981 163.732C157.389 163.881 156.772 163.969 156.133 163.969C154.495 163.969 152.984 163.444 151.742 162.565L147.362 167.041C148.103 168.094 148.539 169.378 148.539 170.765C148.539 174.351 145.634 177.26 142.045 177.26C138.455 177.26 135.55 174.351 135.55 170.765C135.55 167.179 138.459 164.271 142.045 164.271C143.386 164.271 144.627 164.675 145.659 165.37L150.043 160.894C149.103 159.631 148.539 158.071 148.539 156.375C148.539 154.924 148.954 153.569 149.664 152.417L146.166 149.43C145.351 150.012 144.357 150.359 143.279 150.359C140.537 150.359 138.313 148.139 138.313 145.394C138.313 142.648 140.537 140.431 143.279 140.431C146.021 140.431 148.245 142.652 148.245 145.394C148.245 146.195 148.05 146.947 147.716 147.618L151.21 150.604C152.537 149.473 154.254 148.785 156.133 148.785C157.811 148.785 159.354 149.334 160.613 150.257L167.494 143.432C167.04 142.68 166.774 141.801 166.774 140.857C166.774 138.094 169.016 135.852 171.783 135.852C174.549 135.852 176.788 138.094 176.788 140.857C176.788 143.62 174.546 145.865 171.783 145.865C170.825 145.865 169.935 145.592 169.172 145.124L162.291 151.949C163.188 153.197 163.724 154.722 163.724 156.375C163.724 156.914 163.667 157.439 163.561 157.946L170.052 160.436C170.768 159.546 171.864 158.975 173.095 158.975C175.248 158.975 176.997 160.72 176.997 162.877C176.997 165.033 175.248 166.778 173.095 166.778Z" fill="#FF9C00"/>
<path d="M105.816 54.6441C105.298 27.2223 82.9057 5.14941 55.3562 5.14941C27.8068 5.14941 4.88965 27.7473 4.88965 55.6195C4.88965 83.4918 27.484 106.086 55.3562 106.086C83.2285 106.086 105.294 84.0203 105.816 56.5985C105.823 56.2722 105.826 55.9459 105.826 55.6195C105.826 55.2932 105.823 54.9669 105.816 54.6441ZM54.2496 71.5491C53.2848 70.4353 51.8837 69.7898 50.4082 69.7898H33.3542L33.3081 44.294H35.713V66.1293C35.713 66.75 36.2167 67.2572 36.8409 67.2572H49.6917C52.2845 67.2572 54.2496 68.8392 54.2496 70.7936V71.5491ZM54.2496 66.8777C54.2496 66.8777 53.3025 65.4979 49.5001 65.4979H37.8554C37.8199 65.4979 37.7915 65.4695 37.7915 65.4341V39.6865H48.241C51.5609 39.6865 54.2496 42.3786 54.2496 45.6986V66.8777ZM56.4629 45.6986C56.4629 42.3786 59.1551 39.6865 62.475 39.6865H72.9209V65.4341C72.9209 65.4695 72.8961 65.4979 72.8606 65.4979H61.2159C57.4135 65.4979 56.4629 66.8777 56.4629 66.8777V45.6986ZM77.3618 69.7898H60.3078C59.5701 69.7898 58.85 69.9494 58.1938 70.2509C57.5376 70.5524 56.9453 70.9922 56.4629 71.5491V70.7936C56.4629 68.8392 58.4315 67.2572 61.0243 67.2572H73.8751C74.4958 67.2572 75.003 66.75 75.003 66.1293V44.294H77.4043L77.3618 69.7898Z" fill="#087DCE"/>
<path d="M156.275 5.14929C128.726 5.14929 106.334 27.2222 105.816 54.644C105.809 54.9668 105.805 55.2931 105.805 55.6194C105.805 55.9457 105.809 56.2721 105.816 56.5984C106.337 84.0202 128.726 106.086 156.275 106.086C183.825 106.086 206.742 83.4917 206.742 55.6194C206.742 27.7472 184.148 5.14929 156.275 5.14929ZM161.539 64.721L139.452 73.8829L152.615 60.7235C153.87 61.3691 155.456 61.1669 156.513 60.1135C157.815 58.8082 157.815 56.6906 156.509 55.3853C155.204 54.08 153.087 54.08 151.781 55.3853C150.724 56.4423 150.522 58.0278 151.171 59.2835L138.008 72.4428L147.174 50.3592L157.584 45.1913L166.703 54.3141L161.539 64.7245V64.721ZM174.248 48.0253L169.683 52.5903C169.215 53.0585 168.456 53.0585 167.987 52.5903L159.301 43.9037C158.833 43.4355 158.833 42.6764 159.301 42.2082L163.866 37.6433C164.334 37.1751 165.093 37.1751 165.561 37.6433L174.248 46.3298C174.716 46.798 174.716 47.5571 174.248 48.0253Z" fill="#E40535"/>
<path d="M154.825 57.0702C154.452 56.6978 153.842 56.6942 153.466 57.0702C153.09 57.4462 153.094 58.0563 153.466 58.4323C153.842 58.8047 154.452 58.8082 154.828 58.4323C155.201 58.0563 155.197 57.4462 154.825 57.0738V57.0702Z" fill="white"/>
</svg>
