<svg width="719" height="202" viewBox="0 0 719 202" fill="none" xmlns="http://www.w3.org/2000/svg">
<path d="M258.295 91.974V127.628H227.517V9.9008H281.671C294.453 9.9008 304.99 13.8272 313.288 21.6741C321.697 29.4097 325.899 39.1084 325.899 50.7704C325.899 62.4324 321.639 72.3538 313.118 80.2007C304.82 88.0477 294.336 91.974 281.666 91.974H258.289H258.295ZM281.671 38.1591H258.295V63.7216H281.671C285.147 63.7216 288.059 62.491 290.415 60.0238C292.771 57.5566 293.949 54.4741 293.949 50.7763C293.949 47.0784 292.771 44.1893 290.415 41.7807C288.059 39.3722 285.141 38.1649 281.671 38.1649V38.1591ZM392.501 7.88486C410.105 7.88486 424.903 13.7158 436.899 25.3778C448.783 36.9284 454.726 51.3916 454.726 68.7673C454.726 86.1431 448.783 100.612 436.899 112.157C424.903 123.819 410.1 129.65 392.501 129.65C374.903 129.65 360.1 123.819 348.104 112.157C336.219 100.612 330.277 86.1431 330.277 68.7673C330.277 51.3916 336.219 36.9284 348.104 25.3778C360.1 13.7158 374.903 7.88486 392.501 7.88486ZM362.397 68.5974C362.397 77.5695 365.257 85.0765 370.976 91.136C376.919 97.0783 384.092 100.05 392.501 100.05C400.911 100.05 408.312 97.0197 414.026 90.9661C419.857 85.0237 422.769 77.5695 422.769 68.5974C422.769 59.6253 419.851 52.2296 414.026 46.3986C408.195 40.345 401.016 37.3152 392.501 37.3152C383.986 37.3152 376.801 40.345 370.976 46.3986C365.257 52.341 362.397 59.7425 362.397 68.5974ZM478.946 0.149292C484.103 0.149292 488.364 1.86049 491.727 5.27704C495.091 8.69944 496.773 12.9306 496.773 17.9763C496.773 23.022 495.091 27.2238 491.727 30.5876C488.364 33.9514 484.103 35.6333 478.946 35.6333C473.789 35.6333 469.833 33.9514 466.417 30.5876C462.994 27.2238 461.289 23.022 461.289 17.9763C461.289 12.9306 463 8.69944 466.417 5.27704C469.833 1.86049 474.012 0.149292 478.946 0.149292ZM493.749 127.634H464.319V40.175H493.749V127.628V127.634ZM534.619 127.634H505.018V9.9008H532.433L582.55 74.9851V9.9008H612.15V127.628H584.736L534.619 62.7078V127.628V127.634ZM654.696 38.1591H621.228V9.9008H718.942V38.1532H685.474V127.628H654.696V38.1591ZM255.798 170.965L247.143 173.004C246.885 172.125 246.287 171.398 245.349 170.824C244.412 170.256 243.298 169.969 242.015 169.969C240.732 169.969 239.589 170.262 238.71 170.848C237.831 171.434 237.385 172.19 237.385 173.11C237.385 174.288 238.452 175.313 240.585 176.198C241.359 176.491 243.287 177.1 246.375 178.015C248.725 178.712 250.659 179.521 252.165 180.441C255.511 182.205 257.275 185.258 257.457 189.595C257.457 193.345 256.115 196.34 253.431 198.584C250.747 200.829 247.272 201.948 243.011 201.948C239.114 201.948 235.75 201.028 232.92 199.194C230.165 197.395 228.36 195.021 227.517 192.079L236.284 189.981C236.577 191.118 237.35 192.056 238.598 192.794C239.847 193.527 241.318 193.896 243.011 193.896C244.593 193.896 245.935 193.556 247.037 192.876C248.139 192.197 248.69 191.359 248.69 190.368C248.69 189.671 248.362 189.044 247.699 188.493C246.856 187.76 245.256 187.004 242.906 186.231L242.355 186.067C240.48 185.516 239.507 185.223 239.431 185.188L236.729 184.197C235.405 183.611 234.525 183.189 234.08 182.931C231.988 181.425 230.681 180.247 230.165 179.404C229.134 177.675 228.624 175.799 228.624 173.778C228.624 170.25 229.837 167.402 232.263 165.233C234.725 163.03 237.924 161.928 241.857 161.928C245.308 161.928 248.326 162.79 250.899 164.518C253.437 166.212 255.072 168.357 255.804 170.971L255.798 170.965ZM280.447 161.922C284.561 161.922 288.241 162.936 291.476 164.952C294.781 166.974 297.225 169.658 298.807 172.998L290.315 176.139C289.325 174.34 287.965 172.916 286.237 171.867C284.508 170.818 282.58 170.297 280.447 170.297C277.288 170.297 274.639 171.416 272.506 173.66C270.373 175.829 269.306 178.589 269.306 181.929C269.306 185.27 270.373 188.012 272.506 190.257C274.639 192.46 277.282 193.562 280.447 193.562C282.58 193.562 284.508 193.04 286.237 191.991C287.965 190.942 289.325 189.518 290.315 187.719L298.807 190.86C297.225 194.207 294.781 196.908 291.476 198.965C288.241 200.952 284.566 201.942 280.447 201.942C274.715 201.942 269.898 200.032 266.001 196.211C262.139 192.425 260.211 187.667 260.211 181.929C260.211 176.192 262.139 171.434 266.001 167.648C269.898 163.827 274.709 161.916 280.447 161.916V161.922ZM311.594 201.233H302.827V162.637H311.594V177.687H328.302V162.637H337.01V201.233H328.302V185.739H311.594V201.233ZM347.207 196.211C343.345 192.425 341.417 187.667 341.417 181.929C341.417 176.192 343.345 171.434 347.207 167.648C351.104 163.827 355.915 161.916 361.653 161.916C367.39 161.916 372.201 163.827 376.098 167.648C379.995 171.434 381.941 176.192 381.941 181.929C381.941 187.667 379.989 192.425 376.098 196.211C372.201 200.032 367.39 201.942 361.653 201.942C355.915 201.942 351.104 200.032 347.207 196.211ZM361.653 193.568C364.811 193.568 367.478 192.466 369.646 190.263C371.779 188.024 372.846 185.246 372.846 181.935C372.846 178.624 371.779 175.835 369.646 173.666C367.513 171.428 364.852 170.303 361.653 170.303C358.453 170.303 355.845 171.422 353.712 173.666C351.579 175.835 350.512 178.595 350.512 181.935C350.512 185.276 351.579 188.018 353.712 190.263C355.845 192.466 358.488 193.568 361.653 193.568ZM391.317 196.211C387.455 192.425 385.527 187.667 385.527 181.929C385.527 176.192 387.455 171.434 391.317 167.648C395.214 163.827 400.026 161.916 405.763 161.916C411.5 161.916 416.311 163.827 420.208 167.648C424.106 171.434 426.051 176.192 426.051 181.929C426.051 187.667 424.1 192.425 420.208 196.211C416.311 200.032 411.5 201.942 405.763 201.942C400.026 201.942 395.214 200.032 391.317 196.211ZM405.763 193.568C408.922 193.568 411.588 192.466 413.756 190.263C415.889 188.024 416.956 185.246 416.956 181.935C416.956 178.624 415.889 175.835 413.756 173.666C411.623 171.428 408.963 170.303 405.763 170.303C402.563 170.303 399.955 171.422 397.822 173.666C395.689 175.835 394.623 178.595 394.623 181.935C394.623 185.276 395.689 188.018 397.822 190.263C399.955 192.466 402.598 193.568 405.763 193.568ZM430.405 162.637H439.172V193.181H457.808V201.233H430.405V162.637Z" fill="white"/>
<path d="M100.887 150.523C100.369 123.111 77.9858 101.047 50.447 101.047C22.9082 101.047 0 123.636 0 151.498C0 179.359 22.5856 201.948 50.447 201.948C78.3085 201.948 100.366 179.887 100.887 152.476C100.894 152.15 100.898 151.824 100.898 151.498C100.898 151.171 100.894 150.845 100.887 150.523ZM51.5745 170.686C40.2144 170.686 30.9993 161.478 30.9993 150.115C30.9993 142.509 35.13 135.865 41.2639 132.309C40.498 134.525 40.0867 136.904 40.0867 139.375C40.0867 151.352 49.7911 161.057 61.7646 161.057C64.6366 161.057 67.3844 160.496 69.8947 159.482C66.4874 166.137 59.5628 170.686 51.5745 170.686Z" fill="#05BA7C"/>
<path d="M151.327 101.047C123.788 101.047 101.405 123.111 100.887 150.523C100.88 150.845 100.876 151.171 100.876 151.498C100.876 151.824 100.88 152.15 100.887 152.476C101.408 179.887 123.788 201.948 151.327 201.948C178.866 201.948 201.774 179.359 201.774 151.498C201.774 123.636 179.188 101.047 151.327 101.047ZM168.14 161.716C165.985 161.716 164.237 159.972 164.237 157.816C164.237 157.745 164.244 157.674 164.247 157.6L157.752 155.111C157.135 156.178 156.266 157.078 155.224 157.734L157.961 164.124C158.081 164.113 158.202 164.106 158.326 164.106C160.482 164.106 162.226 165.854 162.226 168.01C162.226 170.165 160.482 171.91 158.326 171.91C156.17 171.91 154.422 170.162 154.422 168.01C154.422 166.832 154.947 165.779 155.77 165.063L153.032 158.67C152.44 158.819 151.823 158.908 151.185 158.908C149.547 158.908 148.037 158.383 146.796 157.504L142.417 161.978C143.158 163.031 143.594 164.315 143.594 165.701C143.594 169.286 140.69 172.193 137.102 172.193C133.514 172.193 130.61 169.286 130.61 165.701C130.61 162.117 133.517 159.209 137.102 159.209C138.442 159.209 139.683 159.613 140.715 160.308L145.097 155.834C144.158 154.572 143.594 153.012 143.594 151.317C143.594 149.867 144.009 148.512 144.718 147.36L141.222 144.374C140.407 144.956 139.414 145.303 138.336 145.303C135.595 145.303 133.372 143.084 133.372 140.34C133.372 137.595 135.595 135.379 138.336 135.379C141.077 135.379 143.3 137.599 143.3 140.34C143.3 141.141 143.105 141.893 142.771 142.563L146.264 145.548C147.59 144.417 149.306 143.729 151.185 143.729C152.862 143.729 154.405 144.279 155.663 145.201L162.542 138.379C162.088 137.627 161.822 136.748 161.822 135.805C161.822 133.043 164.063 130.802 166.828 130.802C169.594 130.802 171.831 133.043 171.831 135.805C171.831 138.567 169.591 140.811 166.828 140.811C165.871 140.811 164.981 140.538 164.219 140.07L157.34 146.892C158.237 148.14 158.773 149.664 158.773 151.317C158.773 151.856 158.716 152.38 158.61 152.887L165.098 155.376C165.814 154.487 166.91 153.916 168.14 153.916C170.293 153.916 172.041 155.66 172.041 157.816C172.041 159.972 170.293 161.716 168.14 161.716Z" fill="#FF9C00"/>
<path d="M100.887 49.6249C100.369 22.2138 77.9858 0.149414 50.447 0.149414C22.9082 0.149414 0 22.7385 0 50.6C0 78.4614 22.5856 101.047 50.447 101.047C78.3085 101.047 100.366 78.9897 100.887 51.5786C100.894 51.2524 100.898 50.9262 100.898 50.6C100.898 50.2738 100.894 49.9476 100.887 49.6249ZM49.3408 66.5234C48.3764 65.41 46.9759 64.7647 45.5009 64.7647H28.4536L28.4075 39.2788H30.8114V61.1057C30.8114 61.7261 31.3149 62.2332 31.9389 62.2332H44.7847C47.3765 62.2332 49.3408 63.8145 49.3408 65.7681V66.5234ZM49.3408 61.8538C49.3408 61.8538 48.3941 60.4745 44.5932 60.4745H32.953C32.9175 60.4745 32.8891 60.4462 32.8891 60.4107V34.6731H43.3345C46.6532 34.6731 49.3408 37.3642 49.3408 40.6829V61.8538ZM51.5533 40.6829C51.5533 37.3642 54.2444 34.6731 57.5631 34.6731H68.0049V60.4107C68.0049 60.4462 67.9801 60.4745 67.9447 60.4745H56.3044C52.5035 60.4745 51.5533 61.8538 51.5533 61.8538V40.6829ZM72.444 64.7647H55.3967C54.6592 64.7647 53.9395 64.9243 53.2835 65.2257C52.6276 65.527 52.0355 65.9667 51.5533 66.5234V65.7681C51.5533 63.8145 53.5211 62.2332 56.1129 62.2332H68.9587C69.5792 62.2332 70.0862 61.7261 70.0862 61.1057V39.2788H72.4866L72.444 64.7647Z" fill="#087DCE"/>
<path fill-rule="evenodd" clip-rule="evenodd" d="M151.327 0.149292C179.188 0.149292 201.774 22.7386 201.774 50.6001C201.773 78.4614 178.865 101.047 151.327 101.047C123.788 101.047 101.408 78.9893 100.887 51.5782C100.88 51.2522 100.876 50.9261 100.876 50.6001C100.876 50.2739 100.88 49.9472 100.887 49.6245C101.405 22.2136 123.788 0.149388 151.327 0.149292ZM142.229 45.3415L133.067 67.4168L146.224 54.2627C145.576 53.0075 145.778 51.4227 146.835 50.3661C148.139 49.0614 150.256 49.0614 151.561 50.3661C152.865 51.6709 152.866 53.7873 151.564 55.0921C150.508 56.1451 148.923 56.3474 147.668 55.7023L134.51 68.8565L156.588 59.6982V59.7014L161.751 49.2951L152.635 40.1759L142.229 45.3415ZM149.877 52.05C149.504 51.6777 148.894 51.6742 148.519 52.05C148.143 52.4258 148.146 53.0356 148.519 53.4114C148.894 53.7837 149.505 53.7873 149.881 53.4114C150.253 53.0356 150.249 52.4261 149.877 52.0538V52.05ZM160.609 32.6309C160.141 32.1629 159.383 32.1629 158.915 32.6309L154.351 37.194C153.883 37.662 153.883 38.4208 154.351 38.8888L163.035 47.5721C163.503 48.0399 164.262 48.04 164.73 47.5721L169.293 43.009C169.761 42.541 169.761 41.7816 169.293 41.3136L160.609 32.6309Z" fill="#E40535"/>
</svg>
