<svg width="102" height="102" viewBox="0 0 102 102" fill="none" xmlns="http://www.w3.org/2000/svg">
<path fill-rule="evenodd" clip-rule="evenodd" d="M50.5078 0C78.4006 0.000145998 101.012 22.615 101.012 50.5078C101.012 78.4005 78.0775 101.012 50.5078 101.012C22.938 101.012 0.532632 78.9293 0.0107422 51.4873C0.00364575 51.1609 2.80093e-06 50.8342 0 50.5078C0 50.1812 0.00364295 49.8543 0.0107422 49.5312C0.529004 22.0891 22.9379 0 50.5078 0ZM41.3994 45.2432L32.2266 67.3438L45.3994 54.1738C44.7501 52.9175 44.9524 51.3311 46.0098 50.2734C47.316 48.9672 49.4359 48.9672 50.7422 50.2734C52.0481 51.5797 52.0477 53.6987 50.7451 55.0049C49.6874 56.0589 48.1012 56.2611 46.8447 55.6152L33.6719 68.7842L55.7754 59.6162V59.6191L60.9434 49.2012L51.8174 40.0713L41.3994 45.2432ZM49.0557 51.959C48.683 51.5866 48.0725 51.5829 47.6963 51.959C47.3201 52.3352 47.3237 52.946 47.6963 53.3223C48.0725 53.695 48.6833 53.6985 49.0596 53.3223C49.4322 52.946 49.4283 52.3356 49.0557 51.9629V51.959ZM59.8008 32.5176C59.3323 32.0491 58.5721 32.0491 58.1035 32.5176L53.5352 37.0859C53.0666 37.5545 53.0666 38.3147 53.5352 38.7832L62.2285 47.4756C62.6971 47.9441 63.4563 47.9441 63.9248 47.4756L68.4932 42.9072C68.9616 42.4387 68.9617 41.6795 68.4932 41.2109L59.8008 32.5176Z" fill="white"/>
</svg>
