<svg width="102" height="102" viewBox="0 0 102 102" fill="none" xmlns="http://www.w3.org/2000/svg">
<path d="M101.001 49.5314C100.483 22.0893 78.0739 0 50.504 0C22.9341 0 0 22.6146 0 50.5075C0 78.4005 22.6111 101.012 50.504 101.012C78.3969 101.012 100.479 78.9294 101.001 51.4872C101.008 51.1607 101.012 50.8341 101.012 50.5075C101.012 50.181 101.008 49.8544 101.001 49.5314ZM49.3965 66.4489C48.431 65.3343 47.0289 64.6883 45.5523 64.6883H28.4857L28.4396 39.1736H30.8462V61.0251C30.8462 61.6463 31.3502 62.1539 31.975 62.1539H44.8353C47.43 62.1539 49.3965 63.737 49.3965 65.6928V66.4489ZM49.3965 61.774C49.3965 61.774 48.4488 60.3932 44.6436 60.3932H32.9902C32.9547 60.3932 32.9263 60.3648 32.9263 60.3294V34.5627H43.3835C46.7059 34.5627 49.3965 37.2568 49.3965 40.5793V61.774ZM51.6115 40.5793C51.6115 37.2568 54.3056 34.5627 57.6281 34.5627H68.0817V60.3294C68.0817 60.3648 68.0569 60.3932 68.0214 60.3932H56.368C52.5628 60.3932 51.6115 61.774 51.6115 61.774V40.5793ZM72.5258 64.6883H55.4593C54.721 64.6883 54.0004 64.848 53.3437 65.1497C52.687 65.4515 52.0942 65.8916 51.6115 66.4489V65.6928C51.6115 63.737 53.5815 62.1539 56.1763 62.1539H69.0366C69.6578 62.1539 70.1653 61.6463 70.1653 61.0251V39.1736H72.5684L72.5258 64.6883Z" fill="white"/>
</svg>
