<svg width="102" height="102" viewBox="0 0 102 102" fill="none" xmlns="http://www.w3.org/2000/svg">
<path d="M101.001 49.6918C100.483 22.2497 78.0739 0.1604 50.504 0.1604C22.9341 0.1604 0 22.775 0 50.6679C0 78.5609 22.6111 101.176 50.504 101.176C78.3969 101.176 100.479 79.0898 101.001 51.6476C101.008 51.3211 101.012 50.9945 101.012 50.6679C101.012 50.3414 101.008 50.0148 101.001 49.6918ZM51.6328 69.8785C40.2598 69.8785 31.0343 60.6601 31.0343 49.2836C31.0343 41.6697 35.1696 35.0177 41.3105 31.4574C40.5438 33.6759 40.132 36.0577 40.132 38.5318C40.132 50.5224 49.8473 60.2377 61.8344 60.2377C64.7096 60.2377 67.4605 59.6769 69.9737 58.6617C66.5625 65.3243 59.6301 69.8785 51.6328 69.8785Z" fill="white"/>
</svg>
