<svg width="102" height="102" viewBox="0 0 102 102" fill="none" xmlns="http://www.w3.org/2000/svg">
<path d="M50.5075 0C22.9376 0 0.528893 22.0893 0.0106484 49.5314C0.00354919 49.8544 0 50.181 0 50.5075C0 50.8341 0.00354919 51.1607 0.0106484 51.4872C0.532443 78.9294 22.9376 101.015 50.5075 101.015C78.0774 101.015 101.012 78.4005 101.012 50.5075C101.012 22.6146 78.4005 0 50.5075 0ZM67.3398 60.7376C65.1817 60.7376 63.4317 58.9911 63.4317 56.833C63.4317 56.762 63.4388 56.691 63.4424 56.6165L56.9395 54.1246C56.3218 55.193 55.4522 56.0947 54.4086 56.7513L57.1489 63.1478C57.2696 63.1371 57.3903 63.13 57.5145 63.13C59.6727 63.13 61.4191 64.88 61.4191 67.0381C61.4191 69.1963 59.6727 70.9427 57.5145 70.9427C55.3563 70.9427 53.6064 69.1928 53.6064 67.0381C53.6064 65.8597 54.1317 64.8054 54.9552 64.0884L52.2149 57.6884C51.6221 57.8375 51.0045 57.9263 50.3656 57.9263C48.7256 57.9263 47.2135 57.4009 45.9711 56.5206L41.5874 61.0002C42.3292 62.0545 42.7658 63.3394 42.7658 64.7273C42.7658 68.316 39.8587 71.2267 36.2665 71.2267C32.6743 71.2267 29.7671 68.316 29.7671 64.7273C29.7671 61.1387 32.6778 58.228 36.2665 58.228C37.6082 58.228 38.8506 58.6326 39.8835 59.3284L44.2709 54.8487C43.3302 53.5851 42.7658 52.0232 42.7658 50.3265C42.7658 48.8747 43.1811 47.5188 43.8911 46.3651L40.3911 43.3764C39.5747 43.9585 38.5808 44.3064 37.5017 44.3064C34.7579 44.3064 32.5323 42.0843 32.5323 39.3369C32.5323 36.5895 34.7579 34.371 37.5017 34.371C40.2456 34.371 42.4712 36.593 42.4712 39.3369C42.4712 40.1391 42.276 40.8916 41.9423 41.5625L45.4387 44.5513C46.7662 43.419 48.4843 42.7303 50.3656 42.7303C52.0445 42.7303 53.5886 43.2805 54.8487 44.2034L61.735 37.3739C61.2806 36.6214 61.0144 35.7411 61.0144 34.7969C61.0144 32.0318 63.2578 29.7884 66.0265 29.7884C68.7952 29.7884 71.035 32.0318 71.035 34.7969C71.035 37.5621 68.7916 39.809 66.0265 39.809C65.0681 39.809 64.1771 39.5357 63.414 39.0671L56.5277 45.8966C57.4258 47.1461 57.9617 48.6724 57.9617 50.3265C57.9617 50.8661 57.905 51.3914 57.7985 51.899L64.2943 54.3908C65.0113 53.4999 66.1081 52.9284 67.3398 52.9284C69.4945 52.9284 71.2444 54.6748 71.2444 56.833C71.2444 58.9911 69.4945 60.7376 67.3398 60.7376Z" fill="white"/>
</svg>
