<svg width="203" height="203" viewBox="0 0 203 203" fill="none" xmlns="http://www.w3.org/2000/svg">
<circle cx="50.5864" cy="50.5627" r="33.6711" fill="white"/>
<circle cx="151.6" cy="50.5627" r="33.6711" fill="white"/>
<circle cx="50.5864" cy="151.576" r="33.6711" fill="white"/>
<circle cx="151.6" cy="151.576" r="33.6711" fill="white"/>
<path d="M101.624 151.142C101.105 123.7 78.6967 101.61 51.1268 101.61C23.5569 101.61 0.622803 124.225 0.622803 152.118C0.622803 180.011 23.2339 202.626 51.1268 202.626C79.0197 202.626 101.102 180.54 101.624 153.098C101.631 152.771 101.634 152.445 101.634 152.118C101.634 151.791 101.631 151.465 101.624 151.142ZM52.2556 171.329C40.8826 171.329 31.6571 162.11 31.6571 150.734C31.6571 143.12 35.7924 136.468 41.9333 132.907C41.1666 135.126 40.7548 137.508 40.7548 139.982C40.7548 151.972 50.4701 161.688 62.4572 161.688C65.3324 161.688 68.0833 161.127 70.5965 160.112C67.1853 166.774 60.2529 171.329 52.2556 171.329Z" fill="#05BA7C"/>
<path d="M152.121 101.61C124.551 101.61 102.142 123.7 101.624 151.142C101.617 151.465 101.613 151.791 101.613 152.118C101.613 152.445 101.617 152.771 101.624 153.098C102.146 180.54 124.551 202.626 152.121 202.626C179.691 202.626 202.625 180.011 202.625 152.118C202.625 124.225 180.014 101.61 152.121 101.61ZM168.953 162.348C166.795 162.348 165.045 160.602 165.045 158.443C165.045 158.372 165.052 158.301 165.056 158.227L158.553 155.735C157.935 156.804 157.065 157.705 156.022 158.362L158.762 164.758C158.883 164.748 159.004 164.74 159.128 164.74C161.286 164.74 163.032 166.49 163.032 168.649C163.032 170.807 161.286 172.553 159.128 172.553C156.97 172.553 155.22 170.803 155.22 168.649C155.22 167.47 155.745 166.416 156.568 165.699L153.828 159.299C153.235 159.448 152.618 159.537 151.979 159.537C150.339 159.537 148.827 159.011 147.584 158.131L143.201 162.611C143.943 163.665 144.379 164.95 144.379 166.338C144.379 169.926 141.472 172.837 137.88 172.837C134.288 172.837 131.38 169.926 131.38 166.338C131.38 162.749 134.291 159.838 137.88 159.838C139.222 159.838 140.464 160.243 141.497 160.939L145.884 156.459C144.943 155.196 144.379 153.634 144.379 151.937C144.379 150.485 144.794 149.129 145.504 147.976L142.004 144.987C141.188 145.569 140.194 145.917 139.115 145.917C136.371 145.917 134.146 143.695 134.146 140.947C134.146 138.2 136.371 135.981 139.115 135.981C141.859 135.981 144.084 138.204 144.084 140.947C144.084 141.75 143.889 142.502 143.556 143.173L147.052 146.162C148.38 145.029 150.098 144.341 151.979 144.341C153.658 144.341 155.202 144.891 156.462 145.814L163.348 138.984C162.894 138.232 162.628 137.352 162.628 136.407C162.628 133.642 164.871 131.399 167.64 131.399C170.408 131.399 172.648 133.642 172.648 136.407C172.648 139.173 170.405 141.419 167.64 141.419C166.681 141.419 165.79 141.146 165.027 140.678L158.141 147.507C159.039 148.757 159.575 150.283 159.575 151.937C159.575 152.477 159.518 153.002 159.412 153.509L165.908 156.001C166.625 155.11 167.721 154.539 168.953 154.539C171.108 154.539 172.858 156.285 172.858 158.443C172.858 160.602 171.108 162.348 168.953 162.348Z" fill="#FF9C00"/>
<path d="M101.624 50.1306C101.105 22.6885 78.6967 0.599243 51.1268 0.599243C23.5569 0.599243 0.622803 23.2139 0.622803 51.1068C0.622803 78.9997 23.2339 101.611 51.1268 101.611C79.0197 101.611 101.102 79.5286 101.624 52.0865C101.631 51.7599 101.634 51.4334 101.634 51.1068C101.634 50.7802 101.631 50.4537 101.624 50.1306ZM50.0193 67.0481C49.0538 65.9336 47.6517 65.2875 46.1751 65.2875H29.1085L29.0624 39.7729H31.469V61.6243C31.469 62.2455 31.9731 62.7531 32.5978 62.7531H45.4581C48.0528 62.7531 50.0193 64.3362 50.0193 66.2921V67.0481ZM50.0193 62.3733C50.0193 62.3733 49.0716 60.9925 45.2664 60.9925H33.613C33.5775 60.9925 33.5491 60.9641 33.5491 60.9286V35.1619H44.0063C47.3287 35.1619 50.0193 37.8561 50.0193 41.1785V62.3733ZM52.2343 41.1785C52.2343 37.8561 54.9284 35.1619 58.2509 35.1619H68.7045V60.9286C68.7045 60.9641 68.6797 60.9925 68.6442 60.9925H56.9908C53.1856 60.9925 52.2343 62.3733 52.2343 62.3733V41.1785ZM73.1487 65.2875H56.0821C55.3438 65.2875 54.6232 65.4473 53.9665 65.749C53.3098 66.0507 52.717 66.4908 52.2343 67.0481V66.2921C52.2343 64.3362 54.2043 62.7531 56.7991 62.7531H69.6594C70.2806 62.7531 70.7882 62.2455 70.7882 61.6243V39.7729H73.1912L73.1487 65.2875Z" fill="#087DCE"/>
<path d="M152.121 0.598999C124.551 0.598999 102.142 22.6883 101.624 50.1304C101.617 50.4534 101.613 50.78 101.613 51.1065C101.613 51.4331 101.617 51.7597 101.624 52.0862C102.146 79.5284 124.551 101.611 152.121 101.611C179.691 101.611 202.625 78.9995 202.625 51.1065C202.625 23.2136 180.014 0.598999 152.121 0.598999ZM157.388 60.2149L135.285 69.3835L148.458 56.2145C149.714 56.8605 151.301 56.6582 152.359 55.6039C153.661 54.2977 153.661 52.1785 152.355 50.8723C151.049 49.566 148.93 49.566 147.623 50.8723C146.566 51.9301 146.363 53.5167 147.013 54.7733L133.84 67.9424L143.013 45.8425L153.431 40.6707L162.557 49.8003L157.388 60.2184V60.2149ZM170.107 43.5068L165.538 48.0752C165.07 48.5437 164.31 48.5437 163.842 48.0752L155.149 39.3822C154.68 38.9136 154.68 38.154 155.149 37.6854L159.717 33.1171C160.186 32.6485 160.945 32.6485 161.414 33.1171L170.107 41.8101C170.575 42.2786 170.575 43.0383 170.107 43.5068Z" fill="#E40535"/>
<path d="M150.669 52.5585C150.296 52.1857 149.686 52.1822 149.31 52.5585C148.933 52.9347 148.937 53.5452 149.31 53.9215C149.686 54.2942 150.296 54.2978 150.673 53.9215C151.045 53.5452 151.042 52.9347 150.669 52.562V52.5585Z" fill="white"/>
</svg>
