<svg width="211" height="212" viewBox="0 0 211 212" fill="none" xmlns="http://www.w3.org/2000/svg">
<path fill-rule="evenodd" clip-rule="evenodd" d="M157.295 0.567514C186.724 1.30413 210.421 25.1102 210.985 54.5794L210.997 55.6575L210.985 56.7356C210.559 78.8778 197.245 97.831 178.024 106.191C197.128 114.579 210.562 133.493 210.985 155.593L210.997 156.671C210.997 157.032 210.993 157.392 210.985 157.749C210.419 187.2 187.056 211.02 157.311 211.757L155.89 211.775C133.43 211.775 114.115 198.338 105.532 179.065C97.1998 197.942 78.6124 211.227 56.5031 211.757L55.126 211.775C25.1691 211.774 0.796347 187.869 0.0412694 158.094L0.0236816 156.671C0.0236816 134.099 13.7671 114.714 33.1343 106.192C14.057 97.8785 0.598627 79.0835 0.0412694 57.0786L0.0236816 55.6575C0.0236816 25.2059 25.0348 0.550439 55.126 0.549927L56.489 0.565756C78.4074 1.09745 97.146 14.4271 105.532 33.3651C114.17 14.0304 133.636 0.549984 155.89 0.549927L157.295 0.567514ZM152.856 207.081C153.449 207.116 154.044 207.145 154.643 207.16L153.401 207.114C153.219 207.105 153.037 207.091 152.856 207.081ZM17.0117 189.808C17.4267 190.285 17.8544 190.75 18.2868 191.211C17.8285 190.723 17.3765 190.228 16.9378 189.722L17.0117 189.808ZM13.3323 128.432C13.1979 128.63 13.0683 128.83 12.9366 129.03C13.2923 128.491 13.6551 127.957 14.0305 127.433L13.3323 128.432ZM24.0819 116.937C23.8689 117.104 23.6591 117.275 23.4488 117.445C23.9738 117.02 24.5057 116.602 25.0475 116.198L24.0819 116.937ZM30.6879 112.543C30.1471 112.845 29.6107 113.154 29.0821 113.475L30.1321 112.855C30.3161 112.749 30.5024 112.647 30.6879 112.543ZM39.0526 108.816C37.6296 109.3 36.2353 109.849 34.8702 110.454C36.6091 109.683 38.3962 109.005 40.2274 108.433L39.0526 108.816ZM173.066 109.159C173.449 109.298 173.83 109.439 174.209 109.587C173.451 109.292 172.685 109.015 171.91 108.757L173.066 109.159ZM43.8206 107.457C43.4162 107.551 43.0132 107.649 42.6123 107.752L43.8206 107.457C44.2252 107.363 44.6332 107.274 45.0412 107.19L43.8206 107.457ZM162.249 106.56C163.499 106.717 164.734 106.918 165.953 107.165L164.729 106.933C163.499 106.716 162.253 106.544 160.993 106.417L162.249 106.56ZM52.8167 106.217C50.5973 106.319 48.412 106.567 46.2706 106.952L47.5105 106.745C49.2535 106.476 51.0241 106.299 52.8167 106.217ZM4.68618 58.2359C4.81572 60.8111 5.13826 63.3357 5.63944 65.7951C5.13954 63.3419 4.81812 60.8237 4.68794 58.2552L4.68618 58.2359ZM105.801 49.2257C105.73 49.7772 105.664 50.3309 105.612 50.8877L105.742 49.6689C105.759 49.5208 105.782 49.3734 105.801 49.2257ZM105.281 49.6689C105.299 49.8239 105.313 49.9795 105.33 50.135C105.271 49.5937 105.207 49.0547 105.131 48.5187L105.281 49.6689ZM107.121 42.5617C106.943 43.2181 106.781 43.8806 106.63 44.5474C106.87 43.4899 107.142 42.4445 107.448 41.4132L107.121 42.5617ZM109.465 35.845C109.31 36.2057 109.158 36.5687 109.011 36.9336L109.467 35.8432C109.622 35.4828 109.782 35.1246 109.945 34.7686L109.465 35.845ZM111.525 31.6204C111.212 32.1913 110.914 32.7706 110.624 33.3545C111.089 32.4201 111.58 31.501 112.1 30.6003L111.525 31.6204ZM13.3323 27.4187C13.152 27.6837 12.9766 27.9521 12.8012 28.2207C13.199 27.6116 13.6076 27.0103 14.0305 26.4197L13.3323 27.4187ZM118.241 22.1142C117.466 22.9814 116.721 23.8755 116.006 24.7946L116.732 23.8835C117.468 22.9814 118.233 22.1051 119.027 21.2559L118.241 22.1142ZM121.493 18.7919C121.21 19.0562 120.93 19.3233 120.653 19.5939L121.493 18.7919C121.777 18.5275 122.064 18.2655 122.353 18.0075L121.493 18.7919ZM128.836 13.09C128.454 13.3345 128.077 13.5865 127.702 13.841C128.398 13.3685 129.106 12.9107 129.826 12.4726L128.836 13.09ZM39.0526 7.8031C37.5894 8.30036 36.1561 8.86623 34.7541 9.49152C36.5294 8.69974 38.3555 8.00468 40.2274 7.41969L39.0526 7.8031ZM161.66 5.478C160.185 5.31017 158.69 5.20281 157.179 5.16494L158.459 5.21419C159.535 5.26812 160.603 5.35772 161.66 5.478Z" fill="white"/>
<circle cx="54.5864" cy="55.1126" r="33.6711" fill="white"/>
<circle cx="155.6" cy="55.1126" r="33.6711" fill="white"/>
<circle cx="54.5864" cy="156.126" r="33.6711" fill="white"/>
<circle cx="155.6" cy="156.126" r="33.6711" fill="white"/>
<path d="M105.624 155.692C105.105 128.25 82.6967 106.16 55.1268 106.16C27.5569 106.16 4.6228 128.775 4.6228 156.668C4.6228 184.561 27.2339 207.176 55.1268 207.176C83.0197 207.176 105.102 185.09 105.624 157.648C105.631 157.321 105.634 156.995 105.634 156.668C105.634 156.341 105.631 156.015 105.624 155.692ZM56.2556 175.879C44.8826 175.879 35.6571 166.66 35.6571 155.284C35.6571 147.67 39.7924 141.018 45.9333 137.457C45.1666 139.676 44.7548 142.058 44.7548 144.532C44.7548 156.522 54.4701 166.238 66.4572 166.238C69.3324 166.238 72.0833 165.677 74.5965 164.662C71.1853 171.324 64.2529 175.879 56.2556 175.879Z" fill="#05BA7C"/>
<path d="M156.121 106.16C128.551 106.16 106.142 128.25 105.624 155.692C105.617 156.015 105.613 156.341 105.613 156.668C105.613 156.995 105.617 157.321 105.624 157.648C106.146 185.09 128.551 207.176 156.121 207.176C183.691 207.176 206.625 184.561 206.625 156.668C206.625 128.775 184.014 106.16 156.121 106.16ZM172.953 166.898C170.795 166.898 169.045 165.152 169.045 162.993C169.045 162.922 169.052 162.851 169.056 162.777L162.553 160.285C161.935 161.353 161.065 162.255 160.022 162.912L162.762 169.308C162.883 169.298 163.004 169.29 163.128 169.29C165.286 169.29 167.032 171.04 167.032 173.199C167.032 175.357 165.286 177.103 163.128 177.103C160.97 177.103 159.22 175.353 159.22 173.199C159.22 172.02 159.745 170.966 160.568 170.249L157.828 163.849C157.235 163.998 156.618 164.087 155.979 164.087C154.339 164.087 152.827 163.561 151.584 162.681L147.201 167.161C147.943 168.215 148.379 169.5 148.379 170.888C148.379 174.476 145.472 177.387 141.88 177.387C138.288 177.387 135.38 174.476 135.38 170.888C135.38 167.299 138.291 164.388 141.88 164.388C143.222 164.388 144.464 164.793 145.497 165.489L149.884 161.009C148.943 159.745 148.379 158.184 148.379 156.487C148.379 155.035 148.794 153.679 149.504 152.526L146.004 149.537C145.188 150.119 144.194 150.467 143.115 150.467C140.371 150.467 138.146 148.245 138.146 145.497C138.146 142.75 140.371 140.531 143.115 140.531C145.859 140.531 148.084 142.753 148.084 145.497C148.084 146.3 147.889 147.052 147.556 147.723L151.052 150.712C152.38 149.579 154.098 148.891 155.979 148.891C157.658 148.891 159.202 149.441 160.462 150.364L167.348 143.534C166.894 142.782 166.628 141.902 166.628 140.957C166.628 138.192 168.871 135.949 171.64 135.949C174.408 135.949 176.648 138.192 176.648 140.957C176.648 143.722 174.405 145.969 171.64 145.969C170.681 145.969 169.79 145.696 169.027 145.228L162.141 152.057C163.039 153.306 163.575 154.833 163.575 156.487C163.575 157.026 163.518 157.552 163.412 158.059L169.908 160.551C170.625 159.66 171.721 159.089 172.953 159.089C175.108 159.089 176.858 160.835 176.858 162.993C176.858 165.152 175.108 166.898 172.953 166.898Z" fill="#FF9C00"/>
<path d="M105.624 54.6806C105.105 27.2385 82.6967 5.14917 55.1268 5.14917C27.5569 5.14917 4.6228 27.7638 4.6228 55.6567C4.6228 83.5496 27.2339 106.161 55.1268 106.161C83.0197 106.161 105.102 84.0785 105.624 56.6364C105.631 56.3099 105.634 55.9833 105.634 55.6567C105.634 55.3302 105.631 55.0036 105.624 54.6806ZM54.0193 71.5981C53.0538 70.4835 51.6517 69.8375 50.1751 69.8375H33.1085L33.0624 44.3228H35.469V66.1742C35.469 66.7954 35.9731 67.303 36.5978 67.303H49.4581C52.0528 67.303 54.0193 68.8862 54.0193 70.842V71.5981ZM54.0193 66.9232C54.0193 66.9232 53.0716 65.5424 49.2664 65.5424H37.613C37.5775 65.5424 37.5491 65.514 37.5491 65.4785V39.7118H48.0063C51.3287 39.7118 54.0193 42.406 54.0193 45.7284V66.9232ZM56.2343 45.7284C56.2343 42.406 58.9284 39.7118 62.2509 39.7118H72.7045V65.4785C72.7045 65.514 72.6797 65.5424 72.6442 65.5424H60.9908C57.1856 65.5424 56.2343 66.9232 56.2343 66.9232V45.7284ZM77.1487 69.8375H60.0821C59.3438 69.8375 58.6232 69.9972 57.9665 70.2989C57.3098 70.6006 56.717 71.0408 56.2343 71.5981V70.842C56.2343 68.8862 58.2043 67.303 60.7991 67.303H73.6594C74.2806 67.303 74.7882 66.7954 74.7882 66.1742V44.3228H77.1912L77.1487 69.8375Z" fill="#087DCE"/>
<path d="M156.121 5.14893C128.551 5.14893 106.142 27.2382 105.624 54.6803C105.617 55.0033 105.613 55.3299 105.613 55.6565C105.613 55.983 105.617 56.3096 105.624 56.6362C106.146 84.0783 128.551 106.16 156.121 106.16C183.691 106.16 206.625 83.5494 206.625 55.6565C206.625 27.7636 184.014 5.14893 156.121 5.14893ZM161.388 64.7648L139.285 73.9335L152.458 60.7644C153.714 61.4104 155.301 61.2081 156.359 60.1538C157.661 58.8476 157.661 56.7285 156.355 55.4222C155.049 54.1159 152.93 54.1159 151.623 55.4222C150.566 56.48 150.363 58.0667 151.013 59.3232L137.84 72.4923L147.013 50.3924L157.431 45.2206L166.557 54.3502L161.388 64.7684V64.7648ZM174.107 48.0567L169.538 52.6251C169.07 53.0937 168.31 53.0937 167.842 52.6251L159.149 43.9321C158.68 43.4635 158.68 42.7039 159.149 42.2354L163.717 37.667C164.186 37.1984 164.945 37.1984 165.414 37.667L174.107 46.36C174.575 46.8286 174.575 47.5882 174.107 48.0567Z" fill="#E40535"/>
<path d="M154.669 57.1084C154.296 56.7357 153.686 56.7321 153.31 57.1084C152.933 57.4846 152.937 58.0952 153.31 58.4714C153.686 58.8441 154.296 58.8477 154.673 58.4714C155.045 58.0952 155.042 57.4846 154.669 57.1119V57.1084Z" fill="white"/>
</svg>
